# xmcd CD database file
#
# Track frame offsets:
#	150
#	15367
#	36420
#	56210
#	72775
#	91357
#	93895
#	110487
#	132062
#	134702
#	155452
#	172890
#	195485
#	216917
#	226980
#	262407
#
# Disc length: 3844 seconds
#
# Revision: 0
# Processed by: cddbd v1.5PL3 Copyright (c) Steve Scherf et al.
# Submitted via: CDex 1.40Release
#
DISCID=e10f0210
DTITLE=LUNCH TIME SPEAX - GOING OVER
DYEAR=2003
DGENRE=ヒップ ホップ (一般)
TTITLE0=OK
TTITLE1=180°
TTITLE2=ON DA RUN
TTITLE3=PARANO EAR
TTITLE4=MO BE
TTITLE5=SIMPLE FUNKTION
TTITLE6=STINKY FLAVER
TTITLE7=GOING FLAVER
TTITLE8=ZONE
TTITLE9=RHYTHM IS COSMIC
TTITLE10=NO EQUAL ONE
TTITLE11=視点
TTITLE12=SESSION 5
TTITLE13=衝動
TTITLE14=M.T.C.
TTITLE15=180°VIDEO
EXTD=YEAR: 2003
EXTT0=
EXTT1=
EXTT2=
EXTT3=
EXTT4=
EXTT5=
EXTT6=
EXTT7=
EXTT8=
EXTT9=
EXTT10=
EXTT11=
EXTT12=
EXTT13=
EXTT14=
EXTT15=
PLAYORDER=
